<svg width="40" height="40" viewBox="0 0 100 100" xmlns="http://www.w3.org/2000/svg">
  <defs>
    <linearGradient id="leafGradient" x1="0%" y1="0%" x2="100%" y2="100%">
      <stop offset="0%" style="stop-color:#7CB342;stop-opacity:1" />
      <stop offset="50%" style="stop-color:#8BC34A;stop-opacity:1" />
      <stop offset="100%" style="stop-color:#9CCC65;stop-opacity:1" />
    </linearGradient>
  </defs>
  
  <!-- Main leaf structure with organic curves -->
  <path d="M50 10 C25 15, 15 30, 20 50 C25 70, 40 85, 50 90 C60 85, 75 70, 80 50 C85 30, 75 15, 50 10 Z" 
        fill="url(#leafGradient)" stroke="#689F38" stroke-width="1"/>
  
  <!-- Leaf veins and inner details -->
  <path d="M50 15 C45 25, 35 35, 30 50 C35 65, 45 75, 50 85" 
        fill="none" stroke="#689F38" stroke-width="1.5" opacity="0.7"/>
  
  <path d="M50 15 C55 25, 65 35, 70 50 C65 65, 55 75, 50 85" 
        fill="none" stroke="#689F38" stroke-width="1.5" opacity="0.7"/>
  
  <!-- Central vein -->
  <path d="M50 15 L50 85" 
        fill="none" stroke="#689F38" stroke-width="2" opacity="0.8"/>
  
  <!-- Small decorative leaves -->
  <ellipse cx="35" cy="25" rx="6" ry="12" fill="#8BC34A" opacity="0.8" transform="rotate(-30 35 25)"/>
  <ellipse cx="65" cy="25" rx="6" ry="12" fill="#8BC34A" opacity="0.8" transform="rotate(30 65 25)"/>
  <ellipse cx="30" cy="45" rx="5" ry="10" fill="#9CCC65" opacity="0.7" transform="rotate(-45 30 45)"/>
  <ellipse cx="70" cy="45" rx="5" ry="10" fill="#9CCC65" opacity="0.7" transform="rotate(45 70 45)"/>
</svg>
